<?xml version="1.0" standalone="no"?><!DOCTYPE svg PUBLIC "-//W3C//DTD SVG 1.1//EN" "http://www.w3.org/Graphics/SVG/1.1/DTD/svg11.dtd"><svg t="1600217355789" class="icon" viewBox="0 0 1024 1024" version="1.1" xmlns="http://www.w3.org/2000/svg" p-id="1797" xmlns:xlink="http://www.w3.org/1999/xlink" width="200" height="200"><defs><style type="text/css"></style></defs><path d="M512 563.712c122.368 0 221.696-104.96 221.696-234.496S634.368 94.72 512 94.72 290.304 200.192 290.304 329.216s99.328 234.496 221.696 234.496z m0-428.032c99.84 0 180.736 87.04 180.736 193.536s-81.408 193.536-180.736 193.536-180.736-87.04-180.736-193.536S412.16 135.68 512 135.68zM934.912 841.216l-15.872-74.24c-15.36-71.168-73.728-125.952-145.92-136.192l-35.84-5.12c-149.504-20.992-300.544-20.992-450.048 0l-35.84 5.12c-72.192 10.24-131.072 65.024-145.92 136.192l-15.872 74.24c-4.608 21.504 0.512 43.008 14.336 59.904 13.824 16.896 33.792 26.624 55.808 26.624H865.28c21.504 0 41.984-9.728 55.808-26.624 13.312-16.896 18.432-38.4 13.824-59.904z m-46.08 34.304c-5.632 7.168-14.336 11.264-24.064 11.264H159.232c-9.216 0-17.92-4.096-24.064-11.264s-8.192-16.384-6.144-25.6l15.872-74.24c11.776-54.784 56.32-96.256 111.616-103.936l35.84-5.12a1571.1232 1571.1232 0 0 1 438.272 0l35.84 5.12c55.296 7.68 100.352 49.664 111.616 103.936l15.872 74.24c3.072 8.704 0.512 18.432-5.12 25.6z" fill="#d81e06" p-id="1798"></path></svg>